<?xml version="1.0"?>
<svg width="1280" height="1277" xmlns="http://www.w3.org/2000/svg" xmlns:svg="http://www.w3.org/2000/svg" preserveAspectRatio="xMidYMid meet">
 <metadata>Created by potrace 1.15, written by Peter Selinger 2001-2017</metadata>
 <g class="layer">
  <title>Layer 1</title>
  <g fill="#e4b4c2" id="svg_1" transform="rotate(51.2643 495.295 602.813) translate(0 1277) scale(0.1 -0.1)">
   <path d="m4842.015212,11341.599278c-1258.597169,-105.486658 -2127.723559,-442.232529 -2912.251789,-1127.895809c-268.160209,-234.504956 -624.909057,-622.371284 -782.932037,-852.007625c-599.36999,-868.236342 -845.98161,-1986.39492 -694.343397,-3143.502419c31.923834,-241.807878 110.137229,-589.913851 183.562048,-819.550192c220.274457,-687.286151 553.878526,-1265.8399 1031.937945,-1790.838884c128.493433,-141.189835 485.242282,-474.689963 612.139524,-572.062263c613.735715,-471.444219 1444.553504,-786.281323 2318.46847,-877.973572c741.431053,-77.89784 1482.06401,17.851588 2126.127368,276.699619c436.558435,175.27014 802.884434,404.906481 1209.913322,760.315376c121.310571,105.486658 422.192709,414.643711 518.762308,531.490471c525.147075,643.468616 822.83683,1338.869125 952.926455,2228.202799c34.318122,233.69352 49.481943,379.75197 76.617202,738.406608c19.952396,268.585261 19.952396,281.568234 -7.980959,158.229988c-262.573538,-1186.319189 -1203.528555,-2368.581198 -2334.430387,-2933.340538c-647.255741,-322.951462 -1350.378193,-438.17535 -2095.001629,-344.860229c-774.152983,98.183736 -1489.246872,421.135198 -1998.43203,903.128083c-122.906762,116.035324 -335.998357,348.105973 -433.366051,472.255655c-408.62508,520.130369 -680.775767,1136.010167 -791.711092,1793.273192c-41.500985,245.053622 -51.876231,383.809149 -51.876231,657.263025c0,361.900382 31.923834,629.674207 115.7239,973.723c97.367695,399.22643 279.333551,845.516138 447.731777,1101.118426c558.667101,850.384753 1067.054163,1342.926304 1661.635578,1609.888694c257.784962,115.223888 561.061389,202.047523 854.760665,242.619314c205.110636,29.21169 202.716348,33.268869 -7.980959,15.417281z" id="svg_2"/>
  </g>
  <g fill="#e7cee3" id="svg_3" transform="rotate(-127.46 808.754 476.372) translate(0 1277) scale(0.1 -0.1)">
   <path d="m7978.424078,12545.352597c-1237.99407,-104.095519 -2092.892956,-436.400446 -2864.578543,-1113.02132c-263.770455,-231.412346 -614.679364,-614.163563 -770.115525,-840.771501c-589.558368,-856.786196 -832.132983,-1960.198699 -682.977071,-3102.04647c31.401245,-238.618959 108.334294,-582.134172 180.557157,-808.74211c216.668588,-678.222344 544.811595,-1249.146229 1015.045233,-1767.221621c126.39001,-139.327849 477.298919,-468.429836 602.118866,-564.518008c603.688928,-465.226897 1420.90632,-775.911985 2280.515392,-866.395013c729.293907,-76.870537 1457.802783,17.616165 2091.322893,273.050554c429.412021,172.958709 789.741303,399.566646 1190.107172,750.288472c119.32473,104.095519 415.28146,409.175464 510.270225,524.481269c516.550474,634.982667 809.367081,1321.212358 937.327153,2198.817658c33.756338,230.611612 48.671929,374.743869 75.362987,728.668634c19.625778,265.043206 19.625778,277.854963 -7.850311,156.143279c-258.275237,-1170.674223 -1183.826923,-2337.344772 -2296.216015,-2894.656166c-636.660235,-318.692435 -1328.272648,-432.396772 -2060.70668,-340.312274c-761.480183,96.888906 -1464.868063,415.581342 -1965.717915,891.217791c-120.894792,114.505071 -330.4981,343.515213 -426.271896,466.027632c-401.935931,513.270983 -669.631542,1121.028667 -778.750867,1769.623825c-40.821618,241.821898 -51.027023,378.747543 -51.027023,648.595158c0,357.127704 31.401245,621.370176 113.829512,960.881715c95.773796,393.961503 274.760891,834.365623 440.402456,1086.597073c549.521781,839.170031 1049.586602,1325.216032 1634.434784,1588.657769c253.56505,113.704336 551.876875,199.382956 840.768325,239.419694c201.752997,28.826451 199.397903,32.830125 -7.850311,15.21396z" id="svg_4"/>
  </g>
 </g>
</svg>